<svg xmlns="http://www.w3.org/2000/svg" viewBox="0 0 800 500" width="800" height="500" preserveAspectRatio="xMidYMid slice"><defs><linearGradient id="bg" x1="0" y1="0" x2="1" y2="1"><stop offset="0" stop-color="#1f6b3a"/><stop offset="1" stop-color="#2f8a4f"/></linearGradient></defs><rect width="800" height="500" fill="url(#bg)"/><circle cx="542" cy="392" r="51" fill="#fff" opacity=".04"/><circle cx="409" cy="197" r="80" fill="#fff" opacity=".04"/><circle cx="231" cy="74" r="36" fill="#fff" opacity=".04"/><circle cx="208" cy="164" r="36" fill="#fff" opacity=".04"/><circle cx="86" cy="163" r="39" fill="#fff" opacity=".04"/><circle cx="455" cy="101" r="24" fill="#fff" opacity=".04"/><circle cx="162" cy="271" r="43" fill="#fff" opacity=".04"/><circle cx="587" cy="402" r="45" fill="#fff" opacity=".04"/><circle cx="79" cy="364" r="65" fill="#fff" opacity=".04"/><circle cx="317" cy="329" r="38" fill="#fff" opacity=".04"/><circle cx="732" cy="417" r="68" fill="#fff" opacity=".04"/><circle cx="763" cy="116" r="53" fill="#fff" opacity=".04"/><rect x="140" y="70" width="520" height="340" rx="16" fill="#c79a6b"/><rect x="156" y="86" width="488" height="308" rx="10" fill="#e2bf95"/><g transform="rotate(-3 255.0 170.0)"><rect x="180" y="110" width="150" height="120" rx="4" fill="#fff"/><rect x="192" y="128" width="126" height="10" rx="5" fill="#f26b1d" opacity=".85"/><rect x="192" y="150" width="126" height="7" rx="3" fill="#adb5bd"/><rect x="192" y="166" width="112" height="7" rx="3" fill="#adb5bd"/><rect x="192" y="182" width="98" height="7" rx="3" fill="#adb5bd"/><circle cx="255.0" cy="116" r="7" fill="#e03131"/></g><g transform="rotate(2 415.0 180.0)"><rect x="350" y="100" width="130" height="160" rx="4" fill="#fff3bf"/><rect x="362" y="118" width="106" height="10" rx="5" fill="#f26b1d" opacity=".85"/><rect x="362" y="140" width="106" height="7" rx="3" fill="#adb5bd"/><rect x="362" y="156" width="92" height="7" rx="3" fill="#adb5bd"/><rect x="362" y="172" width="78" height="7" rx="3" fill="#adb5bd"/><circle cx="415.0" cy="106" r="7" fill="#e03131"/></g><g transform="rotate(-2 560.0 170.0)"><rect x="500" y="115" width="120" height="110" rx="4" fill="#d3f9d8"/><rect x="512" y="133" width="96" height="10" rx="5" fill="#f26b1d" opacity=".85"/><rect x="512" y="155" width="96" height="7" rx="3" fill="#adb5bd"/><rect x="512" y="171" width="82" height="7" rx="3" fill="#adb5bd"/><rect x="512" y="187" width="68" height="7" rx="3" fill="#adb5bd"/><circle cx="560.0" cy="121" r="7" fill="#e03131"/></g><g transform="rotate(3 260.0 310.0)"><rect x="190" y="250" width="140" height="120" rx="4" fill="#ffe8cc"/><rect x="202" y="268" width="116" height="10" rx="5" fill="#f26b1d" opacity=".85"/><rect x="202" y="290" width="116" height="7" rx="3" fill="#adb5bd"/><rect x="202" y="306" width="102" height="7" rx="3" fill="#adb5bd"/><rect x="202" y="322" width="88" height="7" rx="3" fill="#adb5bd"/><circle cx="260.0" cy="256" r="7" fill="#e03131"/></g><g transform="rotate(-1 435.0 330.0)"><rect x="360" y="280" width="150" height="100" rx="4" fill="#fff"/><rect x="372" y="298" width="126" height="10" rx="5" fill="#f26b1d" opacity=".85"/><rect x="372" y="320" width="126" height="7" rx="3" fill="#adb5bd"/><rect x="372" y="336" width="112" height="7" rx="3" fill="#adb5bd"/><rect x="372" y="352" width="98" height="7" rx="3" fill="#adb5bd"/><circle cx="435.0" cy="286" r="7" fill="#e03131"/></g><g transform="rotate(4 575.0 310.0)"><rect x="520" y="245" width="110" height="130" rx="4" fill="#e7f5ff"/><rect x="532" y="263" width="86" height="10" rx="5" fill="#f26b1d" opacity=".85"/><rect x="532" y="285" width="86" height="7" rx="3" fill="#adb5bd"/><rect x="532" y="301" width="72" height="7" rx="3" fill="#adb5bd"/><rect x="532" y="317" width="58" height="7" rx="3" fill="#adb5bd"/><circle cx="575.0" cy="251" r="7" fill="#e03131"/></g><rect x="390" y="410" width="20" height="90" fill="#8b5e34"/><g transform="translate(600,340)"><circle r="70" fill="#fff"/><path d="M-30,-22 h60 a8,8 0 0 1 8,8 v34 a8,8 0 0 1 -8,8 h-40 l-20,16 v-16 a8,8 0 0 1 -8,-8 v-34 a8,8 0 0 1 8,-8Z" fill="#f26b1d"/><circle cx="-14" cy="-2" r="5" fill="#fff"/><circle cx="2" cy="-2" r="5" fill="#fff"/><circle cx="18" cy="-2" r="5" fill="#fff"/></g></svg>