<svg xmlns="http://www.w3.org/2000/svg" viewBox="0 0 800 500" width="800" height="500" preserveAspectRatio="xMidYMid slice"><defs><linearGradient id="csky" x1="0" y1="0" x2="0" y2="1"><stop offset="0" stop-color="#a7d8ef"/><stop offset="1" stop-color="#e9f5e9"/></linearGradient>
<linearGradient id="fall" x1="0" y1="0" x2="0" y2="1"><stop offset="0" stop-color="#e6fbff"/><stop offset="1" stop-color="#9fe3ee"/></linearGradient>
<linearGradient id="pool" x1="0" y1="0" x2="0" y2="1"><stop offset="0" stop-color="#3cc6c9"/><stop offset="1" stop-color="#1f9aa8"/></linearGradient></defs><rect width="800" height="500" fill="url(#csky)"/><path d="M-60,128.3 C-47.2,128.2 -8.9,127.1 16.7,127.7 C42.2,128.2 67.8,130.1 93.3,131.5 C118.9,132.9 144.4,137.1 170,136.1 C195.6,135.1 221.1,130 246.7,125.4 C272.2,120.9 297.8,113.2 323.3,108.7 C348.9,104.2 374.4,98.8 400,98.3 C425.6,97.8 451.1,100.9 476.7,105.8 C502.2,110.8 527.8,120.7 553.3,128.1 C578.9,135.4 604.4,144.8 630,150.1 C655.6,155.3 681.1,156.6 706.7,159.4 C732.2,162.1 757.8,165.1 783.3,166.6 C808.9,168.1 847.2,168.3 860,168.6 L860,510 L-60,510 Z" fill="#7bb591" /><path d="M0,120 C120,100 230,110 300,150 L300,420 L0,420Z" fill="#3e8a4f"/><path d="M800,110 C680,95 560,110 500,150 L500,420 L800,420Z" fill="#3e8a4f"/><path d="M300,150 C330,140 470,140 500,150 L520,400 L280,400Z" fill="#8c7b66"/><path d="M320,150 C360,145 440,145 480,150 L500,400 L300,400Z" fill="url(#fall)"/><path d="M320,152 C324,250 314,320 322,398" stroke="#fff" stroke-width="3" opacity=".7" fill="none"/><path d="M337,152 C341,250 331,320 339,398" stroke="#fff" stroke-width="3" opacity=".7" fill="none"/><path d="M354,152 C358,250 348,320 356,398" stroke="#fff" stroke-width="4" opacity=".7" fill="none"/><path d="M371,152 C375,250 365,320 373,398" stroke="#fff" stroke-width="4" opacity=".7" fill="none"/><path d="M388,152 C392,250 382,320 390,398" stroke="#fff" stroke-width="4" opacity=".7" fill="none"/><path d="M405,152 C409,250 399,320 407,398" stroke="#fff" stroke-width="3" opacity=".7" fill="none"/><path d="M422,152 C426,250 416,320 424,398" stroke="#fff" stroke-width="2" opacity=".7" fill="none"/><path d="M439,152 C443,250 433,320 441,398" stroke="#fff" stroke-width="3" opacity=".7" fill="none"/><path d="M456,152 C460,250 450,320 458,398" stroke="#fff" stroke-width="2" opacity=".7" fill="none"/><path d="M473,152 C477,250 467,320 475,398" stroke="#fff" stroke-width="3" opacity=".7" fill="none"/><path d="M0,400 C200,380 600,380 800,400 L800,500 L0,500Z" fill="url(#pool)"/><ellipse cx="400" cy="402" rx="140" ry="18" fill="#fff" opacity=".85"/><path d="M80,440 q20,-6 40,0" stroke="#fff" stroke-width="3" opacity=".5" fill="none"/><path d="M200,460 q20,-6 40,0" stroke="#fff" stroke-width="3" opacity=".5" fill="none"/><path d="M320,440 q20,-6 40,0" stroke="#fff" stroke-width="3" opacity=".5" fill="none"/><path d="M440,460 q20,-6 40,0" stroke="#fff" stroke-width="3" opacity=".5" fill="none"/><path d="M560,440 q20,-6 40,0" stroke="#fff" stroke-width="3" opacity=".5" fill="none"/><path d="M680,460 q20,-6 40,0" stroke="#fff" stroke-width="3" opacity=".5" fill="none"/><ellipse cx="250" cy="400" rx="50" ry="22.5" fill="#6d6457"/><ellipse cx="242" cy="394" rx="30.0" ry="10.0" fill="#8a8173"/><ellipse cx="560" cy="405" rx="60" ry="27.0" fill="#6d6457"/><ellipse cx="552" cy="399" rx="36.0" ry="12.0" fill="#8a8173"/><ellipse cx="120" cy="470" rx="45" ry="20.25" fill="#6d6457"/><ellipse cx="112" cy="464" rx="27.0" ry="9.0" fill="#8a8173"/><ellipse cx="700" cy="470" rx="55" ry="24.75" fill="#6d6457"/><ellipse cx="692" cy="464" rx="33.0" ry="11.0" fill="#8a8173"/><rect x="-14.6" y="214.8" width="9.3" height="36.5" fill="#5b3a1f"/><circle cx="-10" cy="184.9" r="27.8" fill="#2f7640"/><circle cx="-29.9" cy="201.5" r="21.2" fill="#2f7640"/><circle cx="9.9" cy="201.5" r="21.9" fill="#2f7640"/><circle cx="-10" cy="206.8" r="23.9" fill="#2f7640"/><circle cx="-16.6" cy="180.3" r="16.6" fill="#4f9d5c"/><circle cx="1.9" cy="196.2" r="11.9" fill="#4f9d5c" opacity=".8"/><rect x="23.4" y="262.2" width="9.2" height="36.3" fill="#5b3a1f"/><circle cx="28" cy="232.6" r="27.7" fill="#2f7640"/><circle cx="8.2" cy="249.1" r="21.1" fill="#2f7640"/><circle cx="47.8" cy="249.1" r="21.8" fill="#2f7640"/><circle cx="28" cy="254.3" r="23.8" fill="#2f7640"/><circle cx="21.4" cy="227.9" r="16.5" fill="#4f9d5c"/><circle cx="39.9" cy="243.8" r="11.9" fill="#4f9d5c" opacity=".8"/><rect x="60.1" y="240.4" width="11.8" height="46.5" fill="#5b3a1f"/><circle cx="66" cy="202.4" r="35.5" fill="#2f7640"/><circle cx="40.6" cy="223.5" r="27.1" fill="#2f7640"/><circle cx="91.4" cy="223.5" r="27.9" fill="#2f7640"/><circle cx="66" cy="230.3" r="30.4" fill="#2f7640"/><circle cx="57.5" cy="196.4" r="21.1" fill="#4f9d5c"/><circle cx="81.2" cy="216.7" r="15.2" fill="#4f9d5c" opacity=".8"/><rect x="98.1" y="274.3" width="11.8" height="46.2" fill="#5b3a1f"/><circle cx="104" cy="236.5" r="35.3" fill="#2f7640"/><circle cx="78.8" cy="257.5" r="26.9" fill="#2f7640"/><circle cx="129.2" cy="257.5" r="27.7" fill="#2f7640"/><circle cx="104" cy="264.2" r="30.2" fill="#2f7640"/><circle cx="95.6" cy="230.7" r="21" fill="#4f9d5c"/><circle cx="119.1" cy="250.8" r="15.1" fill="#4f9d5c" opacity=".8"/><rect x="135.9" y="153.7" width="12.3" height="48.2" fill="#5b3a1f"/><circle cx="142" cy="114.3" r="36.8" fill="#2f7640"/><circle cx="115.7" cy="136.2" r="28" fill="#2f7640"/><circle cx="168.3" cy="136.2" r="28.9" fill="#2f7640"/><circle cx="142" cy="143.2" r="31.5" fill="#2f7640"/><circle cx="133.2" cy="108.2" r="21.9" fill="#4f9d5c"/><circle cx="157.8" cy="129.2" r="15.8" fill="#4f9d5c" opacity=".8"/><rect x="174.4" y="304" width="11.2" height="43.9" fill="#5b3a1f"/><circle cx="180" cy="268.1" r="33.5" fill="#2f7640"/><circle cx="156" cy="288" r="25.6" fill="#2f7640"/><circle cx="204" cy="288" r="26.4" fill="#2f7640"/><circle cx="180" cy="294.4" r="28.8" fill="#2f7640"/><circle cx="172" cy="262.5" r="20" fill="#4f9d5c"/><circle cx="194.4" cy="281.6" r="14.4" fill="#4f9d5c" opacity=".8"/><rect x="211.7" y="179.8" width="12.6" height="49.3" fill="#5b3a1f"/><circle cx="218" cy="139.4" r="37.7" fill="#2f7640"/><circle cx="191.1" cy="161.9" r="28.7" fill="#2f7640"/><circle cx="244.9" cy="161.9" r="29.6" fill="#2f7640"/><circle cx="218" cy="169" r="32.3" fill="#2f7640"/><circle cx="209" cy="133.2" r="22.4" fill="#4f9d5c"/><circle cx="234.1" cy="154.7" r="16.1" fill="#4f9d5c" opacity=".8"/><rect x="250.9" y="228.1" width="10.3" height="40.3" fill="#5b3a1f"/><circle cx="256" cy="195.1" r="30.8" fill="#2f7640"/><circle cx="234" cy="213.4" r="23.5" fill="#2f7640"/><circle cx="278" cy="213.4" r="24.2" fill="#2f7640"/><circle cx="256" cy="219.3" r="26.4" fill="#2f7640"/><circle cx="248.7" cy="190" r="18.3" fill="#4f9d5c"/><circle cx="269.2" cy="207.6" r="13.2" fill="#4f9d5c" opacity=".8"/><rect x="287.8" y="267.6" width="12.5" height="49" fill="#5b3a1f"/><circle cx="294" cy="227.5" r="37.4" fill="#2f7640"/><circle cx="267.3" cy="249.8" r="28.5" fill="#2f7640"/><circle cx="320.7" cy="249.8" r="29.4" fill="#2f7640"/><circle cx="294" cy="256.9" r="32.1" fill="#2f7640"/><circle cx="285.1" cy="221.3" r="22.3" fill="#4f9d5c"/><circle cx="310" cy="242.6" r="16" fill="#4f9d5c" opacity=".8"/><rect x="503.9" y="244.7" width="12.1" height="47.6" fill="#5b3a1f"/><circle cx="510" cy="205.8" r="36.3" fill="#2f7640"/><circle cx="484.1" cy="227.4" r="27.7" fill="#2f7640"/><circle cx="535.9" cy="227.4" r="28.5" fill="#2f7640"/><circle cx="510" cy="234.3" r="31.1" fill="#2f7640"/><circle cx="501.4" cy="199.7" r="21.6" fill="#4f9d5c"/><circle cx="525.6" cy="220.5" r="15.6" fill="#4f9d5c" opacity=".8"/><rect x="541.8" y="247" width="12.5" height="49.1" fill="#5b3a1f"/><circle cx="548" cy="206.8" r="37.5" fill="#2f7640"/><circle cx="521.2" cy="229.1" r="28.6" fill="#2f7640"/><circle cx="574.8" cy="229.1" r="29.5" fill="#2f7640"/><circle cx="548" cy="236.3" r="32.1" fill="#2f7640"/><circle cx="539.1" cy="200.6" r="22.3" fill="#4f9d5c"/><circle cx="564.1" cy="222" r="16.1" fill="#4f9d5c" opacity=".8"/><rect x="580.6" y="318.8" width="10.7" height="42.2" fill="#5b3a1f"/><circle cx="586" cy="284.3" r="32.2" fill="#2f7640"/><circle cx="563" cy="303.5" r="24.5" fill="#2f7640"/><circle cx="609" cy="303.5" r="25.3" fill="#2f7640"/><circle cx="586" cy="309.6" r="27.6" fill="#2f7640"/><circle cx="578.3" cy="278.9" r="19.2" fill="#4f9d5c"/><circle cx="599.8" cy="297.3" r="13.8" fill="#4f9d5c" opacity=".8"/><rect x="619.6" y="250.2" width="8.8" height="34.4" fill="#5b3a1f"/><circle cx="624" cy="222.1" r="26.3" fill="#2f7640"/><circle cx="605.2" cy="237.7" r="20" fill="#2f7640"/><circle cx="642.8" cy="237.7" r="20.6" fill="#2f7640"/><circle cx="624" cy="242.7" r="22.5" fill="#2f7640"/><circle cx="617.7" cy="217.7" r="15.6" fill="#4f9d5c"/><circle cx="635.3" cy="232.7" r="11.3" fill="#4f9d5c" opacity=".8"/><rect x="656.4" y="261.5" width="11.2" height="44" fill="#5b3a1f"/><circle cx="662" cy="225.4" r="33.6" fill="#2f7640"/><circle cx="638" cy="245.5" r="25.6" fill="#2f7640"/><circle cx="686" cy="245.5" r="26.4" fill="#2f7640"/><circle cx="662" cy="251.9" r="28.8" fill="#2f7640"/><circle cx="654" cy="219.8" r="20" fill="#4f9d5c"/><circle cx="676.4" cy="239.1" r="14.4" fill="#4f9d5c" opacity=".8"/><rect x="694.5" y="234.8" width="11" height="43.1" fill="#5b3a1f"/><circle cx="700" cy="199.6" r="32.9" fill="#2f7640"/><circle cx="676.5" cy="219.1" r="25" fill="#2f7640"/><circle cx="723.5" cy="219.1" r="25.8" fill="#2f7640"/><circle cx="700" cy="225.4" r="28.2" fill="#2f7640"/><circle cx="692.2" cy="194.1" r="19.6" fill="#4f9d5c"/><circle cx="714.1" cy="212.9" r="14.1" fill="#4f9d5c" opacity=".8"/><rect x="732.5" y="248.6" width="11.1" height="43.6" fill="#5b3a1f"/><circle cx="738" cy="213" r="33.3" fill="#2f7640"/><circle cx="714.2" cy="232.8" r="25.4" fill="#2f7640"/><circle cx="761.8" cy="232.8" r="26.1" fill="#2f7640"/><circle cx="738" cy="239.1" r="28.5" fill="#2f7640"/><circle cx="730.1" cy="207.4" r="19.8" fill="#4f9d5c"/><circle cx="752.3" cy="226.4" r="14.3" fill="#4f9d5c" opacity=".8"/><rect x="771.4" y="163.7" width="9.2" height="36.2" fill="#5b3a1f"/><circle cx="776" cy="134.1" r="27.6" fill="#2f7640"/><circle cx="756.3" cy="150.5" r="21" fill="#2f7640"/><circle cx="795.7" cy="150.5" r="21.7" fill="#2f7640"/><circle cx="776" cy="155.8" r="23.7" fill="#2f7640"/><circle cx="769.4" cy="129.5" r="16.4" fill="#4f9d5c"/><circle cx="787.8" cy="145.2" r="11.8" fill="#4f9d5c" opacity=".8"/><rect x="809.3" y="303.5" width="9.5" height="37.3" fill="#5b3a1f"/><circle cx="814" cy="273" r="28.5" fill="#2f7640"/><circle cx="793.6" cy="290" r="21.7" fill="#2f7640"/><circle cx="834.4" cy="290" r="22.4" fill="#2f7640"/><circle cx="814" cy="295.4" r="24.4" fill="#2f7640"/><circle cx="807.2" cy="268.3" r="17" fill="#4f9d5c"/><circle cx="826.2" cy="284.5" r="12.2" fill="#4f9d5c" opacity=".8"/><path d="M40,420 Q57,318 48.5,216" stroke="#6b4a2a" stroke-width="11.9" fill="none" stroke-linecap="round"/><path d="M48.5,216 Q-7.4,149 -63.3,232.3 Q-7.4,172.8 48.5,216Z" fill="#1f5a2a"/><path d="M48.5,216 Q14.4,112.5 -19.8,195.8 Q14.4,136.3 48.5,216Z" fill="#2f7a3b"/><path d="M48.5,216 Q48.5,98.7 48.5,182 Q48.5,122.5 48.5,216Z" fill="#1f5a2a"/><path d="M48.5,216 Q82.6,112.5 116.8,195.8 Q82.6,136.3 48.5,216Z" fill="#2f7a3b"/><path d="M48.5,216 Q104.4,149 160.3,232.3 Q104.4,172.8 48.5,216Z" fill="#1f5a2a"/><path d="M48.5,216 Q-7.4,149 -63.3,232.3 Q-7.4,172.8 48.5,216Z" fill="#1f5a2a"/><path d="M48.5,216 Q106,195 163.4,278.3 Q106,218.8 48.5,216Z" fill="#2f7a3b"/><path d="M770,430 Q789,316 779.5,202" stroke="#6b4a2a" stroke-width="13.3" fill="none" stroke-linecap="round"/><path d="M779.5,202 Q717,127.2 654.5,220.3 Q717,153.8 779.5,202Z" fill="#1f5a2a"/><path d="M779.5,202 Q741.4,86.4 703.2,179.5 Q741.4,113 779.5,202Z" fill="#2f7a3b"/><path d="M779.5,202 Q779.5,70.9 779.5,164 Q779.5,97.5 779.5,202Z" fill="#1f5a2a"/><path d="M779.5,202 Q817.6,86.4 855.8,179.5 Q817.6,113 779.5,202Z" fill="#2f7a3b"/><path d="M779.5,202 Q842,127.2 904.5,220.3 Q842,153.8 779.5,202Z" fill="#1f5a2a"/><path d="M779.5,202 Q717,127.2 654.5,220.3 Q717,153.8 779.5,202Z" fill="#1f5a2a"/><path d="M779.5,202 Q843.7,178.5 908,271.6 Q843.7,205.1 779.5,202Z" fill="#2f7a3b"/></svg>