<svg xmlns="http://www.w3.org/2000/svg" width="960" height="420" viewBox="0 0 960 420"><defs><linearGradient id="a" x1="0" x2="0" y1="0" y2="1"><stop offset="0" stop-color="#d7eef8"/><stop offset="1" stop-color="#fff6ea"/></linearGradient></defs><path fill="url(#a)" d="M0 0h960v420H0z"/><g fill="#fff" opacity=".85"><ellipse cx="120" cy="54" rx="46" ry="16"/><circle cx="100" cy="48" r="16"/><circle cx="128" cy="42" r="20"/><ellipse cx="520" cy="70" rx="40" ry="14"/><circle cx="508" cy="62" r="14"/><circle cx="534" cy="58" r="18"/></g><path fill="#b7d7c4" d="M0 150q240-36 480 0t480-8v88H0Z"/><path fill="#7fb592" d="M0 200q288 24 595.2-10T960 216v74H0Z"/><path fill="#1f6b3a" d="M0 250q384 18 960-6v156H0Z" opacity=".15"/><path fill="#e7d3b0" d="M0 280h960v420H0z"/><path fill="none" stroke="#6b4423" stroke-linecap="round" stroke-width="7.7" d="M120 304.4c6.6-48.4 4.4-90.2 0-123.2"/><path fill="#1f6b3a" d="M120 190c-50.6 24.2-63.8 66-19.8 41.8Z"/><path fill="#2f7640" d="M120 190c50.6 24.2 63.8 66 19.8 41.8Z"/><path fill="#3e9a4a" d="M120 190c-8.8-50.6 30.8-55 8.8-4.4Z"/><path fill="#1f6b3a" d="M120 190c8.8-50.6-30.8-55-8.8-4.4Z"/><path fill="#7fb592" d="M120 190c-39.6-22-8.8-55 0-8.8Z"/><g transform="translate(210 300)"><rect width="10" height="42" x="-5" y="-6" fill="#6b4423" rx="2"/><circle cy="-28" r="26" fill="#1f6b3a"/><circle cx="-16" cy="-12" r="18" fill="#2f7640"/><circle cx="16" cy="-10" r="18" fill="#2f7640"/><circle cx="2" cy="-6" r="14" fill="#3e9a4a"/></g><path fill="#fff8ef" d="M340 230h92v70h-92z"/><path fill="#c2502a" d="m332 230 54-36 54 36Z"/><path fill="#6b4423" d="M374 258h24v42h-24z"/><path fill="#7ed0e6" d="M352 246h22v18h-22zm46 0h22v18h-22z"/><path fill="#f3e0c4" d="M470 246h100v70H470z"/><path fill="#f26b1d" d="m462 246 58-36 58 36Z"/><path fill="#6b4423" d="M508 274h24v42h-24z"/><path fill="#7ed0e6" d="M482 262h22v18h-22zm54 0h22v18h-22z"/><path fill="#3e9a4a" d="M700 320c-8-30-6-60 0-90 6 30 8 60 0 90"/><path fill="#1f6b3a" d="M700 280c-50 10-70 40-40 30-20-30 20-50 40-30"/><path fill="#2f7640" d="M700 280c50 10 70 40 40 30 20-30-20-50-40-30"/><path fill="#3e9a4a" d="M700 270c-10-40 16-50 4-6"/><path fill="none" stroke="#6b4423" stroke-linecap="round" stroke-width="6.3" d="M840 313.6c5.4-39.6 3.6-73.8 0-100.8"/><path fill="#1f6b3a" d="M840 220c-41.4 19.8-52.2 54-16.2 34.2Z"/><path fill="#2f7640" d="M840 220c41.4 19.8 52.2 54 16.2 34.2Z"/><path fill="#3e9a4a" d="M840 220c-7.2-41.4 25.2-45 7.2-3.6Z"/><path fill="#1f6b3a" d="M840 220c7.2-41.4-25.2-45-7.2-3.6Z"/><path fill="#7fb592" d="M840 220c-32.4-18-7.2-45 0-7.2Z"/><g transform="translate(300 360)"><circle r="7" fill="#f2a007"/><circle cy="-8" r="4" fill="#f26b1d"/><circle cx="6" cy="-3" r="4" fill="#db5a10"/><circle cx="-6" cy="-3" r="4" fill="#f26b1d"/><circle r="2.5" fill="#2b2118"/></g><g transform="matrix(1.2 0 0 1.2 560 368)"><circle r="7" fill="#f2a007"/><circle cy="-8" r="4" fill="#f26b1d"/><circle cx="6" cy="-3" r="4" fill="#db5a10"/><circle cx="-6" cy="-3" r="4" fill="#f26b1d"/><circle r="2.5" fill="#2b2118"/></g><g transform="translate(760 364)"><circle r="7" fill="#f2a007"/><circle cy="-8" r="4" fill="#f26b1d"/><circle cx="6" cy="-3" r="4" fill="#db5a10"/><circle cx="-6" cy="-3" r="4" fill="#f26b1d"/><circle r="2.5" fill="#2b2118"/></g><path fill="none" stroke="#6b4423" stroke-width="2" d="M0 118h960"/><path fill="#f26b1d" d="M10 118h26v16l-4 3-4-3-5 3-5-3-4 3-4-3Z"/><path fill="#1f6b3a" d="M44 118h26v16l-4 3-4-3-5 3-5-3-4 3-4-3Z"/><path fill="#f2a007" d="M78 118h26v16l-4 3-4-3-5 3-5-3-4 3-4-3Z"/><path fill="#d6336c" d="M112 118h26v16l-4 3-4-3-5 3-5-3-4 3-4-3Z"/><path fill="#3aa0c8" d="M146 118h26v16l-4 3-4-3-5 3-5-3-4 3-4-3Z"/><path fill="#f26b1d" d="M180 118h26v16l-4 3-4-3-5 3-5-3-4 3-4-3Z"/><path fill="#1f6b3a" d="M214 118h26v16l-4 3-4-3-5 3-5-3-4 3-4-3Z"/><path fill="#f2a007" d="M248 118h26v16l-4 3-4-3-5 3-5-3-4 3-4-3Z"/><path fill="#d6336c" d="M282 118h26v16l-4 3-4-3-5 3-5-3-4 3-4-3Z"/><path fill="#3aa0c8" d="M316 118h26v16l-4 3-4-3-5 3-5-3-4 3-4-3Z"/><path fill="#f26b1d" d="M350 118h26v16l-4 3-4-3-5 3-5-3-4 3-4-3Z"/><path fill="#1f6b3a" d="M384 118h26v16l-4 3-4-3-5 3-5-3-4 3-4-3Z"/><path fill="#f2a007" d="M418 118h26v16l-4 3-4-3-5 3-5-3-4 3-4-3Z"/><path fill="#d6336c" d="M452 118h26v16l-4 3-4-3-5 3-5-3-4 3-4-3Z"/><path fill="#3aa0c8" d="M486 118h26v16l-4 3-4-3-5 3-5-3-4 3-4-3Z"/><path fill="#f26b1d" d="M520 118h26v16l-4 3-4-3-5 3-5-3-4 3-4-3Z"/><path fill="#1f6b3a" d="M554 118h26v16l-4 3-4-3-5 3-5-3-4 3-4-3Z"/><path fill="#f2a007" d="M588 118h26v16l-4 3-4-3-5 3-5-3-4 3-4-3Z"/><path fill="#d6336c" d="M622 118h26v16l-4 3-4-3-5 3-5-3-4 3-4-3Z"/><path fill="#3aa0c8" d="M656 118h26v16l-4 3-4-3-5 3-5-3-4 3-4-3Z"/><path fill="#f26b1d" d="M690 118h26v16l-4 3-4-3-5 3-5-3-4 3-4-3Z"/><path fill="#1f6b3a" d="M724 118h26v16l-4 3-4-3-5 3-5-3-4 3-4-3Z"/><path fill="#f2a007" d="M758 118h26v16l-4 3-4-3-5 3-5-3-4 3-4-3Z"/><path fill="#d6336c" d="M792 118h26v16l-4 3-4-3-5 3-5-3-4 3-4-3Z"/><path fill="#3aa0c8" d="M826 118h26v16l-4 3-4-3-5 3-5-3-4 3-4-3Z"/><path fill="#f26b1d" d="M860 118h26v16l-4 3-4-3-5 3-5-3-4 3-4-3Z"/><path fill="#1f6b3a" d="M894 118h26v16l-4 3-4-3-5 3-5-3-4 3-4-3Z"/><path fill="#f2a007" d="M928 118h26v16l-4 3-4-3-5 3-5-3-4 3-4-3Z"/></svg>