<svg xmlns="http://www.w3.org/2000/svg" viewBox="0 0 800 500" width="800" height="500" preserveAspectRatio="xMidYMid slice"><defs><linearGradient id="csky" x1="0" y1="0" x2="0" y2="1"><stop offset="0" stop-color="#ffd8a8"/><stop offset="1" stop-color="#fff4e6"/></linearGradient></defs><rect width="800" height="500" fill="url(#csky)"/><g fill="#fff" opacity="0.8"><ellipse cx="170" cy="80" rx="70" ry="22.4"/><circle cx="145.5" cy="69.5" r="21"/><circle cx="180.5" cy="60.4" r="28"/><circle cx="208.5" cy="74.4" r="17.5"/></g><g fill="#fff" opacity="0.7"><ellipse cx="620" cy="60" rx="55" ry="17.6"/><circle cx="600.8" cy="51.8" r="16.5"/><circle cx="628.2" cy="44.6" r="22"/><circle cx="650.2" cy="55.6" r="13.8"/></g><path d="M-60,225.2 C-49,227 -16.2,233.8 5.7,236 C27.6,238.1 49.5,240.7 71.4,238.3 C93.3,235.8 115.2,229.3 137.1,221.1 C159,213 181,195.6 202.9,189.3 C224.8,182.9 246.7,179 268.6,183.1 C290.5,187.1 312.4,205.1 334.3,213.4 C356.2,221.7 378.1,231 400,233 C421.9,234.9 443.8,230.8 465.7,225.1 C487.6,219.4 509.5,206 531.4,199.1 C553.3,192.1 575.2,181.7 597.1,183.4 C619,185.2 641,200.3 662.9,209.6 C684.8,219 706.7,233.4 728.6,239.5 C750.5,245.7 772.4,247.6 794.3,246.5 C816.2,245.4 849,235.3 860,233.1 L860,510 L-60,510 Z" fill="#9dbfb7" /><path d="M-60,299.7 C-49,297.3 -16.2,289 5.7,285.3 C27.6,281.5 49.5,279.1 71.4,277.2 C93.3,275.4 115.2,273.6 137.1,274.2 C159,274.7 181,279.3 202.9,280.6 C224.8,282 246.7,283.2 268.6,282.4 C290.5,281.7 312.4,280.9 334.3,275.9 C356.2,271 378.1,262 400,252.6 C421.9,243.1 443.8,226 465.7,219.3 C487.6,212.5 509.5,209.2 531.4,212 C553.3,214.8 575.2,228.4 597.1,236.1 C619,243.7 641,252.5 662.9,257.7 C684.8,262.9 706.7,265.6 728.6,267.2 C750.5,268.9 772.4,266.5 794.3,267.7 C816.2,268.9 849,273.3 860,274.4 L860,510 L-60,510 Z" fill="#6ea88a" /><path d="M-60,353.2 C-47.2,353.2 -8.9,352.4 16.7,352.9 C42.2,353.4 67.8,354.8 93.3,356.2 C118.9,357.7 144.4,359.4 170,361.5 C195.6,363.6 221.1,367.2 246.7,368.9 C272.2,370.7 297.8,371.9 323.3,372.1 C348.9,372.3 374.4,371.2 400,370.2 C425.6,369.1 451.1,366.9 476.7,365.8 C502.2,364.6 527.8,363.8 553.3,363.1 C578.9,362.5 604.4,362 630,361.8 C655.6,361.7 681.1,362.2 706.7,362.2 C732.2,362.3 757.8,362.4 783.3,362 C808.9,361.7 847.2,360.6 860,360.3 L860,510 L-60,510 Z" fill="#6aa86f"/><rect y="420" width="800" height="80" fill="#cbb994"/><rect x="30" y="365" width="80" height="60" fill="#fbf3e6"/><rect x="79.6" y="365" width="30.4" height="60" fill="#000" opacity=".08"/><path d="M23.6,365 L70,332 L116.4,365Z" fill="#b5452a"/><rect x="62" y="392" width="16" height="33" fill="#7a4a2a"/><rect x="39.6" y="383" width="12.8" height="15" fill="#6aa4c8"/><rect x="87.6" y="383" width="12.8" height="15" fill="#6aa4c8"/><rect x="120" y="365" width="80" height="60" fill="#fbf3e6"/><rect x="169.6" y="365" width="30.4" height="60" fill="#000" opacity=".08"/><path d="M113.6,365 L160,332 L206.4,365Z" fill="#b5452a"/><rect x="152" y="392" width="16" height="33" fill="#7a4a2a"/><rect x="129.6" y="383" width="12.8" height="15" fill="#6aa4c8"/><rect x="177.6" y="383" width="12.8" height="15" fill="#6aa4c8"/><rect x="560" y="365" width="80" height="60" fill="#fbf3e6"/><rect x="609.6" y="365" width="30.4" height="60" fill="#000" opacity=".08"/><path d="M553.6,365 L600,332 L646.4,365Z" fill="#b5452a"/><rect x="592" y="392" width="16" height="33" fill="#7a4a2a"/><rect x="569.6" y="383" width="12.8" height="15" fill="#6aa4c8"/><rect x="617.6" y="383" width="12.8" height="15" fill="#6aa4c8"/><rect x="660" y="365" width="80" height="60" fill="#fbf3e6"/><rect x="709.6" y="365" width="30.4" height="60" fill="#000" opacity=".08"/><path d="M653.6,365 L700,332 L746.4,365Z" fill="#b5452a"/><rect x="692" y="392" width="16" height="33" fill="#7a4a2a"/><rect x="669.6" y="383" width="12.8" height="15" fill="#6aa4c8"/><rect x="717.6" y="383" width="12.8" height="15" fill="#6aa4c8"/><ellipse cx="620" cy="465" rx="70" ry="16" fill="#8a7a5a"/><path d="M700,480 L720,410 L740,480Z" fill="#f26b1d"/><rect x="708" y="440" width="24" height="8" fill="#fff"/><rect x="690" y="478" width="60" height="8" fill="#f26b1d"/><g transform="translate(300,90) rotate(-8)"><rect x="0" y="0" width="190" height="360" rx="28" fill="#1f2933"/><rect x="10" y="14" width="170" height="330" rx="20" fill="#fff"/><rect x="24" y="36" width="142" height="90" rx="12" fill="#e7f5ec"/><path d="M95,112 C88,100 75,92 75,78 A20,20 0 1 1 115,78 C115,92 102,100 95,112Z" fill="#f26b1d"/><circle cx="95" cy="78" r="7" fill="#fff"/><rect x="24" y="146" width="22" height="22" rx="6" fill="#1f6b3a"/><rect x="56" y="150" width="100" height="8" rx="4" fill="#ced4da"/><rect x="56" y="162" width="60" height="6" rx="3" fill="#e9ecef"/><rect x="24" y="182" width="22" height="22" rx="6" fill="#f26b1d"/><rect x="56" y="186" width="88" height="8" rx="4" fill="#ced4da"/><rect x="56" y="198" width="60" height="6" rx="3" fill="#e9ecef"/><rect x="24" y="218" width="22" height="22" rx="6" fill="#2b7bd6"/><rect x="56" y="222" width="76" height="8" rx="4" fill="#ced4da"/><rect x="56" y="234" width="60" height="6" rx="3" fill="#e9ecef"/><rect x="24" y="254" width="22" height="22" rx="6" fill="#f59f00"/><rect x="56" y="258" width="64" height="8" rx="4" fill="#ced4da"/><rect x="56" y="270" width="60" height="6" rx="3" fill="#e9ecef"/><rect x="24" y="296" width="142" height="32" rx="16" fill="#f26b1d"/><rect x="60" y="308" width="70" height="8" rx="4" fill="#fff"/></g><path d="M260,500 C250,420 280,360 320,330 L360,300 C380,290 395,305 385,320 L370,345 C420,330 470,340 480,360 C490,390 470,420 440,440 L400,500Z" fill="#c68b59"/><path d="M340,500 L400,500 L380,470Z" fill="#a0673a" opacity=".5"/><g transform="translate(560,120)"><rect x="0" y="0" width="170" height="100" rx="24" fill="#fff" opacity=".95"/><path d="M30,100 l10,26 22,-26Z" fill="#fff" opacity=".95"/><path d="M40,40 l50,-20 v60 l-50,-20Z" fill="#f26b1d"/><rect x="26" y="38" width="16" height="24" rx="4" fill="#f26b1d"/><path d="M104,32 q14,18 0,36 M118,24 q22,26 0,52" stroke="#1f6b3a" stroke-width="6" fill="none" stroke-linecap="round"/></g></svg>