<svg xmlns="http://www.w3.org/2000/svg" width="960" height="420" viewBox="0 0 960 420"><defs><linearGradient id="a" x1="0" x2="0" y1="0" y2="1"><stop offset="0" stop-color="#d7eef8"/><stop offset="1" stop-color="#fff6ea"/></linearGradient></defs><path fill="url(#a)" d="M0 0h960v420H0z"/><g fill="#fff" opacity=".85"><ellipse cx="120" cy="54" rx="46" ry="16"/><circle cx="100" cy="48" r="16"/><circle cx="128" cy="42" r="20"/><ellipse cx="520" cy="70" rx="40" ry="14"/><circle cx="508" cy="62" r="14"/><circle cx="534" cy="58" r="18"/></g><path fill="#b7d7c4" d="M0 170q240-36 480 0t480-8v88H0Z"/><path fill="#7fb592" d="M0 220q288 24 595.2-10T960 236v74H0Z"/><path fill="#1f6b3a" d="M0 270q384 18 960-6v136H0Z" opacity=".15"/><path fill="#e7d3b0" d="M0 310h960v420H0z"/><path fill="none" stroke="#f2a007" stroke-width="18" d="M220 250q260-130 520 0"/><path fill="none" stroke="#f26b1d" stroke-width="8" d="M220 250q260-110 520 0"/><g transform="matrix(1.4 0 0 1.4 260 230)"><circle r="7" fill="#f2a007"/><circle cy="-8" r="4" fill="#f26b1d"/><circle cx="6" cy="-3" r="4" fill="#db5a10"/><circle cx="-6" cy="-3" r="4" fill="#f26b1d"/><circle r="2.5" fill="#2b2118"/></g><g transform="matrix(1.5 0 0 1.5 360 180)"><circle r="7" fill="#f2a007"/><circle cy="-8" r="4" fill="#f26b1d"/><circle cx="6" cy="-3" r="4" fill="#db5a10"/><circle cx="-6" cy="-3" r="4" fill="#f26b1d"/><circle r="2.5" fill="#2b2118"/></g><g transform="matrix(1.6 0 0 1.6 480 150)"><circle r="7" fill="#f2a007"/><circle cy="-8" r="4" fill="#f26b1d"/><circle cx="6" cy="-3" r="4" fill="#db5a10"/><circle cx="-6" cy="-3" r="4" fill="#f26b1d"/><circle r="2.5" fill="#2b2118"/></g><g transform="matrix(1.5 0 0 1.5 600 180)"><circle r="7" fill="#f2a007"/><circle cy="-8" r="4" fill="#f26b1d"/><circle cx="6" cy="-3" r="4" fill="#db5a10"/><circle cx="-6" cy="-3" r="4" fill="#f26b1d"/><circle r="2.5" fill="#2b2118"/></g><g transform="matrix(1.4 0 0 1.4 700 230)"><circle r="7" fill="#f2a007"/><circle cy="-8" r="4" fill="#f26b1d"/><circle cx="6" cy="-3" r="4" fill="#db5a10"/><circle cx="-6" cy="-3" r="4" fill="#f26b1d"/><circle r="2.5" fill="#2b2118"/></g><rect width="100" height="70" x="430" y="250" fill="#fff8ef" rx="8"/><circle cx="460" cy="278" r="10" fill="#2b2118"/><circle cx="500" cy="278" r="10" fill="#2b2118"/><path fill="none" stroke="#d6336c" stroke-width="4" d="M455 300q25 14 50 0"/><path fill="#f2a007" d="M455 320h8v28h-8z"/><path fill="#f26b1d" d="M478 320h8v28h-8z"/><path fill="#f2a007" d="M500 320h8v28h-8z"/><path fill="none" stroke="#6b4423" stroke-linecap="round" stroke-width="5.6" d="M90 323.2c4.8-35.2 3.2-65.6 0-89.6"/><path fill="#1f6b3a" d="M90 240c-36.8 17.6-46.4 48-14.4 30.4Z"/><path fill="#2f7640" d="M90 240c36.8 17.6 46.4 48 14.4 30.4Z"/><path fill="#3e9a4a" d="M90 240c-6.4-36.8 22.4-40 6.4-3.2Z"/><path fill="#1f6b3a" d="M90 240c6.4-36.8-22.4-40-6.4-3.2Z"/><path fill="#7fb592" d="M90 240c-28.8-16-6.4-40 0-6.4Z"/><path fill="#3e9a4a" d="M860 348c-7.2-27-5.4-54 0-81 5.4 27 7.2 54 0 81"/><path fill="#1f6b3a" d="M860 312c-45 9-63 36-36 27-18-27 18-45 36-27"/><path fill="#2f7640" d="M860 312c45 9 63 36 36 27 18-27-18-45-36-27"/><path fill="#3e9a4a" d="M860 303c-9-36 14.4-45 3.6-5.4"/></svg>