<svg xmlns="http://www.w3.org/2000/svg" width="960" height="420" viewBox="0 0 960 420"><defs><linearGradient id="a" x1="0" x2="0" y1="0" y2="1"><stop offset="0" stop-color="#d7eef8"/><stop offset="1" stop-color="#fff6ea"/></linearGradient></defs><path fill="url(#a)" d="M0 0h960v420H0z"/><g fill="#fff" opacity=".85"><ellipse cx="120" cy="54" rx="46" ry="16"/><circle cx="100" cy="48" r="16"/><circle cx="128" cy="42" r="20"/><ellipse cx="520" cy="70" rx="40" ry="14"/><circle cx="508" cy="62" r="14"/><circle cx="534" cy="58" r="18"/></g><path fill="#b7d7c4" d="M0 168q240-36 480 0t480-8v88H0Z"/><path fill="#7fb592" d="M0 210q288 24 595.2-10T960 226v74H0Z"/><path fill="#1f6b3a" d="M0 250q384 18 960-6v156H0Z" opacity=".15"/><path fill="#e7d3b0" d="M0 300h960v420H0z"/><path fill="none" stroke="#cdb892" stroke-width="28" d="M80 360c120-60 280-20 440-60s280 20 440 0"/><rect width="220" height="150" x="560" y="160" fill="#6b4423" rx="6"/><path fill="#fff8ef" d="M574 174h192v122H574z"/><path fill="#f26b1d" d="M590 190h70v44h-70z"/><path fill="#1f6b3a" d="M672 190h76v22h-76z"/><path fill="#b7d7c4" d="M590 246h158v12H590z"/><path fill="#f2a007" d="M590 266h120v12H590z"/><g transform="translate(160 300)"><rect width="10" height="42" x="-5" y="-6" fill="#6b4423" rx="2"/><circle cy="-28" r="26" fill="#1f6b3a"/><circle cx="-16" cy="-12" r="18" fill="#2f7640"/><circle cx="16" cy="-10" r="18" fill="#2f7640"/><circle cx="2" cy="-6" r="14" fill="#3e9a4a"/></g><path fill="none" stroke="#6b4423" stroke-linecap="round" stroke-width="5.95" d="M360 313.4c5.1-37.4 3.4-69.7 0-95.2"/><path fill="#1f6b3a" d="M360 225c-39.1 18.7-49.3 51-15.3 32.3Z"/><path fill="#2f7640" d="M360 225c39.1 18.7 49.3 51 15.3 32.3Z"/><path fill="#3e9a4a" d="M360 225c-6.8-39.1 23.8-42.5 6.8-3.4Z"/><path fill="#1f6b3a" d="M360 225c6.8-39.1-23.8-42.5-6.8-3.4Z"/><path fill="#7fb592" d="M360 225c-30.6-17-6.8-42.5 0-6.8Z"/><path fill="#fff8ef" d="M200 220h80v70h-80z"/><path fill="#c2502a" d="m192 220 48-36 48 36Z"/><path fill="#6b4423" d="M228 248h24v42h-24z"/><path fill="#7ed0e6" d="M212 236h22v18h-22zm34 0h22v18h-22z"/></svg>