<svg xmlns="http://www.w3.org/2000/svg" width="640" height="400" viewBox="0 0 640 400"><defs><linearGradient id="a" x1="0" x2="0" y1="0" y2="1"><stop offset="0" stop-color="#d7eef8"/><stop offset="1" stop-color="#fff6ea"/></linearGradient></defs><path fill="url(#a)" d="M0 0h640v400H0z"/><g fill="#fff" opacity=".85"><ellipse cx="120" cy="54" rx="46" ry="16"/><circle cx="100" cy="48" r="16"/><circle cx="128" cy="42" r="20"/><ellipse cx="520" cy="70" rx="40" ry="14"/><circle cx="508" cy="62" r="14"/><circle cx="534" cy="58" r="18"/></g><path fill="#b7d7c4" d="M0 168q160-36 320 0t320-8v88H0Z"/><path fill="#7fb592" d="M0 210q192 24 396.8-10T640 226v74H0Z"/><path fill="#1f6b3a" d="M0 250q256 18 640-6v156H0Z" opacity=".15"/><path fill="#e7d3b0" d="M0 292h960v400H0z"/><path fill="#fff" d="M400 190h120v70H400z"/><path fill="#f26b1d" d="m392 190 68-36 68 36Z"/><path fill="#6b4423" d="M448 218h24v42h-24z"/><path fill="#7ed0e6" d="M412 206h22v18h-22zm74 0h22v18h-22z"/><rect width="250" height="90" x="80" y="240" fill="#8fbf6a" rx="6"/><circle cx="120" cy="230" r="16" fill="#3e9a4a"/><circle cx="170" cy="220" r="18" fill="#2f7640"/><circle cx="230" cy="228" r="16" fill="#3e9a4a"/><circle cx="270" cy="236" r="12" fill="#f2a007"/><g transform="matrix(.8 0 0 .8 140 300)"><circle r="7" fill="#f2a007"/><circle cy="-8" r="4" fill="#f26b1d"/><circle cx="6" cy="-3" r="4" fill="#db5a10"/><circle cx="-6" cy="-3" r="4" fill="#f26b1d"/><circle r="2.5" fill="#2b2118"/></g><g transform="matrix(.8 0 0 .8 200 310)"><circle r="7" fill="#f2a007"/><circle cy="-8" r="4" fill="#f26b1d"/><circle cx="6" cy="-3" r="4" fill="#db5a10"/><circle cx="-6" cy="-3" r="4" fill="#f26b1d"/><circle r="2.5" fill="#2b2118"/></g></svg>