<svg xmlns="http://www.w3.org/2000/svg" width="640" height="400" viewBox="0 0 640 400"><defs><linearGradient id="a" x1="0" x2="0" y1="0" y2="1"><stop offset="0" stop-color="#d7eef8"/><stop offset="1" stop-color="#fff6ea"/></linearGradient></defs><path fill="url(#a)" d="M0 0h640v400H0z"/><g fill="#fff" opacity=".85"><ellipse cx="120" cy="54" rx="46" ry="16"/><circle cx="100" cy="48" r="16"/><circle cx="128" cy="42" r="20"/><ellipse cx="520" cy="70" rx="40" ry="14"/><circle cx="508" cy="62" r="14"/><circle cx="534" cy="58" r="18"/></g><path fill="#b7d7c4" d="M0 168q160-36 320 0t320-8v88H0Z"/><path fill="#7fb592" d="M0 210q192 24 396.8-10T640 226v74H0Z"/><path fill="#1f6b3a" d="M0 250q256 18 640-6v156H0Z" opacity=".15"/><path fill="#e7d3b0" d="M0 292h960v400H0z"/><path fill="#d9c2a0" d="M150 160h300v150H150z"/><path fill="#2b2118" d="M150 160h300l-20-28H170z"/><path fill="#7ed0e6" d="M180 200h120v80H180z" opacity=".7"/><path fill="#6b4423" d="M330 210h80v70h-80z"/><circle cx="360" cy="240" r="16" fill="#e7d3b0"/><path stroke="#6b4423" stroke-width="8" d="M500 180v120"/><circle cx="500" cy="176" r="16" fill="#f26b1d"/><path fill="#3e9a4a" d="M70 346c-6.4-24-4.8-48 0-72 4.8 24 6.4 48 0 72"/><path fill="#1f6b3a" d="M70 314c-40 8-56 32-32 24-16-24 16-40 32-24"/><path fill="#2f7640" d="M70 314c40 8 56 32 32 24 16-24-16-40-32-24"/><path fill="#3e9a4a" d="M70 306c-8-32 12.8-40 3.2-4.8"/></svg>