<svg xmlns="http://www.w3.org/2000/svg" width="640" height="400" viewBox="0 0 640 400"><defs><linearGradient id="a" x1="0" x2="0" y1="0" y2="1"><stop offset="0" stop-color="#d7eef8"/><stop offset="1" stop-color="#fff6ea"/></linearGradient></defs><path fill="url(#a)" d="M0 0h640v400H0z"/><g fill="#fff" opacity=".85"><ellipse cx="120" cy="54" rx="46" ry="16"/><circle cx="100" cy="48" r="16"/><circle cx="128" cy="42" r="20"/><ellipse cx="520" cy="70" rx="40" ry="14"/><circle cx="508" cy="62" r="14"/><circle cx="534" cy="58" r="18"/></g><path fill="#b7d7c4" d="M0 168q160-36 320 0t320-8v88H0Z"/><path fill="#7fb592" d="M0 210q192 24 396.8-10T640 226v74H0Z"/><path fill="#1f6b3a" d="M0 250q256 18 640-6v156H0Z" opacity=".15"/><path fill="#e7d3b0" d="M0 292h960v400H0z"/><path fill="#8fbf6a" d="M60 230h280v90H60z"/><g transform="translate(380 140)"><path fill="#aeb8c2" d="M24 50h80v80H24z"/><ellipse cx="64" cy="50" fill="#3aa0c8" rx="58" ry="20"/><ellipse cx="64" cy="50" fill="#7ed0e6" rx="40" ry="12"/></g><path fill="none" stroke="#6b4423" stroke-linecap="round" stroke-width="3.85" d="M40 252.2c3.3-24.2 2.2-45.1 0-61.6"/><path fill="#1f6b3a" d="M40 195c-25.3 12.1-31.9 33-9.9 20.9Z"/><path fill="#2f7640" d="M40 195c25.3 12.1 31.9 33 9.9 20.9Z"/><path fill="#3e9a4a" d="M40 195c-4.4-25.3 15.4-27.5 4.4-2.2Z"/><path fill="#1f6b3a" d="M40 195c4.4-25.3-15.4-27.5-4.4-2.2Z"/><path fill="#7fb592" d="M40 195c-19.8-11-4.4-27.5 0-4.4Z"/></svg>